<?xml version="1.0" standalone="no"?>
<!DOCTYPE svg PUBLIC "-//W3C//DTD SVG 20010904//EN"
 "http://www.w3.org/TR/2001/REC-SVG-20010904/DTD/svg10.dtd">
<svg version="1.0" xmlns="http://www.w3.org/2000/svg"
 width="300.000000pt" height="302.000000pt" viewBox="0 0 300.000000 302.000000"
 preserveAspectRatio="xMidYMid meet">
<metadata>
Created by potrace 1.10, written by Peter Selinger 2001-2011
</metadata>
<g transform="translate(0.000000,302.000000) scale(0.100000,-0.100000)"
fill="#000000" stroke="none">
<path d="M1345 2983 c-140 -22 -273 -86 -374 -180 -186 -172 -270 -359 -278
-623 -3 -98 -9 -145 -21 -170 -20 -44 -27 -148 -14 -221 18 -94 68 -210 115
-264 25 -29 54 -80 70 -121 15 -39 50 -106 77 -150 50 -79 51 -79 48 -154 l-3
-74 -100 -32 c-55 -18 -161 -46 -236 -63 -220 -49 -327 -108 -431 -239 -112
-141 -163 -296 -127 -385 32 -78 143 -153 284 -190 100 -26 278 -58 315 -56
19 1 42 -1 50 -4 67 -28 824 -45 1189 -28 869 42 1125 178 964 512 -44 92
-123 198 -181 243 -106 81 -184 114 -363 152 -65 13 -163 39 -217 57 l-97 32
-3 79 c-3 76 -2 80 39 147 22 38 57 106 76 151 20 46 51 100 69 120 48 54 88
140 114 243 26 103 23 179 -8 241 -16 32 -21 66 -25 184 -4 106 -11 165 -26
218 -76 260 -282 480 -515 550 -66 20 -107 25 -221 27 -77 2 -153 1 -170 -2z
m365 -48 c186 -50 362 -200 460 -394 53 -106 82 -236 84 -383 2 -71 7 -133 13
-140 16 -19 33 -87 33 -130 0 -112 -59 -275 -128 -350 -21 -24 -45 -61 -52
-83 -16 -51 -70 -157 -109 -215 -29 -42 -31 -51 -31 -138 l0 -93 38 -16 c58
-24 182 -60 305 -87 62 -14 139 -35 171 -46 165 -56 279 -166 363 -348 40 -86
47 -157 20 -209 -90 -172 -577 -253 -1477 -246 -720 6 -1101 64 -1250 190 -37
31 -69 94 -70 136 0 40 53 167 97 235 104 159 223 230 488 291 94 22 206 52
250 68 l80 29 3 88 3 88 -50 78 c-53 82 -95 168 -105 217 -4 17 -20 40 -36 52
-33 24 -101 158 -119 234 -19 81 -16 188 8 235 17 34 21 60 21 149 0 300 129
553 357 703 79 52 127 71 234 95 85 19 309 14 399 -10z"/>
<path d="M1323 2806 c-98 -23 -179 -71 -269 -161 -145 -144 -201 -299 -191
-535 2 -69 8 -132 11 -141 6 -13 2 -16 -18 -12 -21 4 -26 0 -33 -23 -10 -40
-10 -41 3 -116 22 -117 69 -200 118 -210 15 -2 22 -17 32 -64 7 -33 27 -90 44
-125 164 -328 444 -441 695 -281 135 87 255 260 287 414 10 48 15 57 37 62 32
6 64 53 91 131 42 121 36 224 -11 212 -19 -5 -20 -2 -12 51 22 158 -2 354 -58
465 -78 153 -206 268 -359 323 -64 22 -285 28 -367 10z m399 -58 c123 -57 213
-138 278 -249 60 -102 80 -188 81 -351 0 -76 -3 -142 -6 -148 -12 -20 4 -56
30 -68 23 -11 25 -17 24 -62 -1 -28 -6 -53 -11 -56 -4 -3 -8 -16 -8 -30 0 -42
-48 -123 -85 -145 -32 -19 -55 -63 -55 -107 0 -7 -13 -41 -29 -76 -66 -145
-169 -259 -289 -318 -62 -31 -74 -33 -167 -33 -95 0 -105 2 -171 35 -136 68
-269 239 -310 401 -16 65 -37 99 -60 99 -58 0 -130 268 -76 287 9 4 20 11 24
17 3 5 4 75 1 155 -6 175 8 258 63 371 64 130 220 264 344 297 27 7 107 11
205 10 150 -2 164 -4 217 -29z"/>
<path d="M1135 1011 c0 -26 -6 -60 -14 -74 -12 -22 -82 -64 -160 -94 -23 -9
-21 -11 40 -57 79 -60 172 -107 269 -137 98 -31 318 -33 420 -5 90 24 213 85
288 143 59 45 62 48 40 57 -13 5 -52 22 -86 38 -71 34 -92 65 -92 137 l0 40
-63 -39 c-195 -123 -427 -117 -604 16 -17 13 -33 24 -35 24 -2 0 -3 -22 -3
-49z m75 -36 c22 -14 72 -36 112 -50 63 -21 88 -24 183 -22 114 3 129 7 245
66 l55 27 20 -50 c17 -42 29 -56 74 -83 30 -18 59 -34 65 -37 31 -13 -175
-125 -279 -151 -144 -37 -317 -28 -459 22 -66 23 -226 110 -226 122 0 4 20 14
45 24 58 24 115 87 115 127 0 17 2 30 5 30 3 0 23 -11 45 -25z"/>
<path d="M6 2897 c3 -10 9 -15 12 -12 3 3 0 11 -7 18 -10 9 -11 8 -5 -6z"/>
<path d="M6 1837 c3 -10 9 -15 12 -12 3 3 0 11 -7 18 -10 9 -11 8 -5 -6z"/>
<path d="M6 1463 c-6 -14 -5 -15 5 -6 7 7 10 15 7 18 -3 3 -9 -2 -12 -12z"/>
<path d="M6 403 c-6 -14 -5 -15 5 -6 7 7 10 15 7 18 -3 3 -9 -2 -12 -12z"/>
<path d="M4 60 c0 -13 4 -16 10 -10 7 7 7 13 0 20 -6 6 -10 3 -10 -10z"/>
</g>
</svg>
